<?xml version="1.0" encoding="utf-8"?>
<!-- Generator: Adobe Illustrator 28.3.0, SVG Export Plug-In . SVG Version: 6.00 Build 0)  -->
<svg version="1.1" id="图层_1" xmlns="http://www.w3.org/2000/svg" xmlns:xlink="http://www.w3.org/1999/xlink" x="0px" y="0px"
	 viewBox="0 0 100 100" style="enable-background:new 0 0 100 100;" xml:space="preserve">
<style type="text/css">
	.st0{fill:#090808;}
	.st1{fill:#578AAE;}
	.st2{opacity:0.34;fill:#EF8327;}
	.st3{fill:none;}
	.st4{fill:#040000;}
</style>
<g>
	<circle class="st0" cx="74.64" cy="13.02" r="6.46"/>
	<circle class="st0" cx="96.09" cy="19.07" r="2.99"/>
	<circle class="st0" cx="89.7" cy="39.1" r="4.22"/>
	<circle class="st0" cx="79.47" cy="42.05" r="3.15"/>
	<circle class="st0" cx="77.75" cy="51.81" r="2.82"/>
	<circle class="st0" cx="89.3" cy="10.87" r="0.73"/>
	<path class="st0" d="M79.42,60.61h-2.44c-0.21,0-0.37-0.17-0.37-0.37V57.8c0-0.21,0.17-0.37,0.37-0.37h2.44
		c0.21,0,0.37,0.17,0.37,0.37v2.44C79.8,60.44,79.63,60.61,79.42,60.61z"/>
	<path class="st0" d="M46.77,28.23h-2.44c-0.21,0-0.37-0.17-0.37-0.37v-2.44c0-0.21,0.17-0.37,0.37-0.37h2.44
		c0.21,0,0.37,0.17,0.37,0.37v2.44C47.15,28.06,46.98,28.23,46.77,28.23z"/>
	<path class="st0" d="M40.79,25.97h-2.44c-0.21,0-0.37-0.17-0.37-0.37v-2.44c0-0.21,0.17-0.37,0.37-0.37h2.44
		c0.21,0,0.37,0.17,0.37,0.37v2.44C41.16,25.81,41,25.97,40.79,25.97z"/>
	<path class="st0" d="M28.92,32.38h-2.44c-0.21,0-0.37-0.17-0.37-0.37v-2.44c0-0.21,0.17-0.37,0.37-0.37h2.44
		c0.21,0,0.37,0.17,0.37,0.37v2.44C29.3,32.22,29.13,32.38,28.92,32.38z"/>
	<path class="st0" d="M25.8,38.47h-2.44c-0.21,0-0.37-0.17-0.37-0.37v-2.44c0-0.21,0.17-0.37,0.37-0.37h2.44
		c0.21,0,0.37,0.17,0.37,0.37v2.44C26.17,38.3,26.01,38.47,25.8,38.47z"/>
	<path class="st0" d="M71.59,72.62h-2.51c-0.21,0-0.37-0.17-0.37-0.37v-2.51c0-0.21,0.17-0.37,0.37-0.37h2.51
		c0.21,0,0.37,0.17,0.37,0.37v2.51C71.96,72.45,71.79,72.62,71.59,72.62z"/>
	<path class="st0" d="M63.45,33.08l-4.36,4.36c-0.51,0.51-1.34,0.51-1.86,0l0,0c-0.51-0.51-0.51-1.34,0-1.86l4.36-4.36
		c0.51-0.51,1.34-0.51,1.86,0l0,0C63.96,31.73,63.96,32.56,63.45,33.08z"/>
	<path class="st0" d="M58.18,42.14l-8.04,8.04c-0.59,0.59-1.55,0.59-2.14,0l-0.02-0.02c-0.59-0.59-0.59-1.55,0-2.14l8.04-8.04
		c0.59-0.59,1.55-0.59,2.14,0L58.18,40C58.77,40.59,58.77,41.55,58.18,42.14z"/>
	<path class="st0" d="M72.98,25.21l-4.36,4.36c-0.51,0.51-1.34,0.51-1.86,0l0,0c-0.51-0.51-0.51-1.34,0-1.86l4.36-4.36
		c0.51-0.51,1.34-0.51,1.86,0v0C73.5,23.86,73.5,24.69,72.98,25.21z"/>
	<circle class="st0" cx="51.41" cy="22.28" r="2.91"/>
	<path class="st0" d="M63.44,18.95c-1.48,0.16-2.69,1.36-2.85,2.85c-0.07,0.62,0.04,1.2,0.28,1.72c0.13,0.28,0.06,0.61-0.15,0.83
		l-3.09,3.09c-0.54,0.54-0.54,1.41,0,1.95l0.09,0.09c0.54,0.54,1.41,0.54,1.95,0l3.93-3.88c0.12-0.12,0.28-0.2,0.45-0.21
		c1.67-0.13,2.99-1.52,2.99-3.22C67.03,20.26,65.39,18.74,63.44,18.95z"/>
	<path class="st0" d="M64.8,65.89"/>
	<path class="st0" d="M52.96,29.13c-0.7-0.7-1.72-1.1-2.82-0.96c-1.63,0.2-2.95,1.8-2.95,3.44v3.92l1.34-1.34
		c0.51-0.51,1.34-0.51,1.86,0h0c0.51,0.51,0.51,1.34,0,1.86l-3.2,3.2v3.14c0,0.33,0.4,0.49,0.63,0.26l5.72-5.72
		c0.26-0.26,0.41-0.62,0.41-1v-4.41C53.95,30.58,53.57,29.74,52.96,29.13z"/>
	<g>
		<path class="st1" d="M40.9,63.61h-2.44c-0.21,0-0.37-0.17-0.37-0.37V60.8c0-0.21,0.17-0.37,0.37-0.37h2.44
			c0.21,0,0.37,0.17,0.37,0.37v2.44C41.27,63.44,41.11,63.61,40.9,63.61z"/>
		<path class="st1" d="M47.2,39.24l3.2-3.2c0.51-0.51,0.51-1.34,0-1.86h0c-0.51-0.51-1.34-0.51-1.86,0l-1.34,1.34V39.24L47.2,39.24z
			"/>
		<g>
			<path class="st1" d="M38.37,35.93l2.76-2.76v15.29l-5.25,3.74c-0.25,0.18-0.59,0-0.59-0.3V33.88l2.59,2.08
				C38.02,36.07,38.23,36.06,38.37,35.93z"/>
			<path class="st1" d="M24.77,60.31h3.99c0.21,0,0.37-0.17,0.37-0.37v-2.27c0-0.11,0.05-0.21,0.13-0.28
				c0.57-0.48,2.78-2.48,2.78-4.77c0-2.63,0-5.69,0-5.69l-3.42-0.91l-2.15,1.64c-0.13,0.1-0.3,0.1-0.44,0.01l-2.68-1.83
				c0,0-1.1,3.2,1.1,4.71C26.67,52.06,24.77,60.31,24.77,60.31z"/>
			<rect x="19.56" y="56.98" class="st1" width="3.61" height="7.41"/>
			<path class="st1" d="M85.1,21.06c0.35,0.25,1.3,1.01,1.63,2.66c0.31,1.55-1.03,2.55-1.71,2.8c-0.29,0.11-10.15,4.02-10.15,4.02
				c0.39-1.86,7.3-7.74,7.3-7.74c0.7-1.19-0.1-2.05-1.62-2.74L61.44,37.32c-0.13,0.12-0.2,0.28-0.19,0.46l0.13,1.99
				c0.03,0.42,0.49,0.67,0.85,0.45l2.63-1.55c4.1,0.84,1.8,2.76-2.09,4.33c-7.83,3.17-15.16,10.62-16.9,12.43
				c-1.74,1.81,0.34,2.24,1.15,1.3c0.8-0.94,4.64-4.37,8.5-6.63s4.11-0.06,3.89,0.58c-0.22,0.64-1.28,0.88-2.22,0.99
				c-1.53,0.18-4.85,1.56-7.36,4.93c-2.02,2.7-2.85,5.22-2.9,6.65c-0.01,0.2-0.17,0.36-0.37,0.36l-4.9,0
				c-0.21,0-0.37,0.17-0.37,0.37v2.26c0,0.21-0.17,0.37-0.37,0.37h-5.39c-0.21,0-0.37-0.17-0.37-0.37v-2.31
				c0-0.21-0.17-0.37-0.37-0.37h-9.04v10.29h9.42V73h6.13v0.64h12.01V63.61l2.15-0.21l10.61,0c1.89,0,3.6-1.25,4.06-3.09
				c0.6-2.42-1.13-4.58-3.41-4.74c0.26,0.37,0.41,0.81,0.41,1.3v0.33c0,1.24-1.01,2.25-2.25,2.25h-2.95h-4.07h-1.99
				c-1.28,0.11-2.93,0.45-4.14,1.43c0,0,0.06-1.51,1.83-2.69c-0.15-0.3-0.23-0.64-0.23-0.99v-0.33c0-1.24,1.01-2.25,2.25-2.25h6.92
				l1.67-6.51L71,44.32l-0.98-6.99l7.28-3.65L89,27.94v-5.66C89,22.28,84,20.28,85.1,21.06z"/>
		</g>
	</g>
	<path class="st2" d="M52.62,56.7l1.61-0.72C53.63,56.09,53.08,56.34,52.62,56.7z"/>
	<line class="st3" x1="81.5" y1="23.43" x2="81.5" y2="18.93"/>
	<g>
		<path class="st4" d="M86.7,19.07c-2.07-0.79-4.24-0.42-6.15,0.98c0.66,0.83,1,2.04,0.94,3.37l0.01,0.01
			c1.31-1.44,2.72-1.93,4.07-1.41c1.29,0.49,2.28,1.87,2.29,3.19c0.02,1.6-1.33,2.49-2.46,2.95c-4.42,1.8-12.29,4.85-13.41,5.29
			c-0.09,0.03-0.17,0.07-0.26,0.12c-0.87,0.48-6.15,3.41-10.02,5.82c-0.57,0.35-0.17,1.22,0.47,1.03c1.43-0.44,2.98-0.98,4.62-1.59
			c1.16,0.27,2.45,1.04,2.49,3.12c0.07,3.78-5.47,2.75-9.04,4.64c-2.4,1.27-4.59,2.57-5.96,3.58c-0.26,0.19-0.03,0.59,0.26,0.47
			c2.06-0.88,5.47-1.94,6.3,0.27c0.1,0.27,0.14,0.51,0.14,0.74c-0.01,0.4-0.35,0.72-0.76,0.72h-1.6c-2.56,0.22-6.81,3.07-6.78,6.83
			v0c0,0.25,0.27,0.36,0.43,0.16c2.49-3.05,7.75-3.42,9.65-3.46h3.8c1.98,0,3.69,1.52,3.78,3.5c0.1,2.11-1.59,3.86-3.68,3.86H54.18
			c-0.77,0-1.53,0.19-2.21,0.57c-2.63,1.47-4.41,4.28-4.41,7.51c0,0.34,0.02,0.68,0.06,1.01c0.03,0.22-0.15,0.41-0.37,0.41h-2.28
			c-0.21,0-0.37-0.17-0.37-0.37v-1.31c0-0.21-0.17-0.37-0.37-0.37h-2.8c-0.21,0-0.37,0.17-0.37,0.37v1.31
			c0,0.21-0.17,0.37-0.37,0.37h-8.21c-0.21,0-0.37-0.17-0.37-0.37v-2.23c0-0.21-0.17-0.37-0.37-0.37h-5.17
			c-0.21,0-0.37-0.17-0.37-0.37l0-18.17c0-0.36-0.26-0.66-0.61-0.73c-1.43-0.3-2.48-1.65-2.31-3.21c0.15-1.35,1.24-2.44,2.59-2.59
			c1.78-0.2,3.28,1.19,3.28,2.92v5.76c0,0.13,0.12,0.24,0.25,0.22c0.72-0.1,2.76-0.61,2.76-3.39l0-2.06c0-0.37,0.27-0.68,0.63-0.74
			c1.99-0.31,2.58-2.04,2.75-2.92c0.05-0.24,0.07-0.48,0.07-0.73c0-1.35,0-8.36,0-8.36c0-1.48,1.16-2.75,2.63-2.77
			c1.51-0.03,2.73,1.18,2.73,2.68v8.63c0,1.25-0.85,2.3-2,2.6c-0.33,0.09-0.57,0.38-0.57,0.72l0,2.88c0,0.13,0.1,0.23,0.23,0.23
			c3.34-0.12,6.01-2.87,6.01-6.23v-8.8c0-3.3-2.51-6.13-5.8-6.35c-1.89-0.13-3.62,0.59-4.84,1.81c-1.13,1.13-1.83,2.69-1.83,4.41
			v5.57c0,0.21-0.17,0.37-0.37,0.37H20.08c-0.21,0-0.37,0.17-0.37,0.37v8.1c0,0.41-0.33,0.75-0.75,0.75h-1.93
			c-0.21,0-0.37,0.17-0.37,0.37v2.36c0,0.21-0.17,0.37-0.37,0.37h-2.14c0.33,19.07,15.95,34.58,35.06,34.73
			c9.33,0.07,17.84-3.49,24.2-9.35h-1.98c-0.21,0-0.37-0.17-0.37-0.37v-2.24c0-0.21-0.17-0.37-0.37-0.37H65.8
			c-0.21,0-0.37-0.17-0.37-0.37v-5.81c0-0.21-0.17-0.37-0.37-0.37h-2.49c-0.21,0-0.37,0.17-0.37,0.37v2.53
			c0,0.21-0.17,0.37-0.37,0.37h-2.14c-0.21,0-0.37-0.17-0.37-0.37v-2.53c0-0.21-0.17-0.37-0.37-0.37h-2.4
			c-0.21,0-0.37-0.17-0.37-0.37V66.4c0-0.21,0.17-0.37,0.37-0.37h2.15l8.34,0c3.61,0,6.71-2.75,6.95-6.35
			c0.14-2.07-0.65-3.96-1.98-5.3c-1.23-1.23-2.94-2-4.82-2h-1.72v-3.83c0,0,8.03,0.22,8.03-5.67c0-3.51-1.4-5.01-2.53-5.64
			c0.02-0.01,0.04-0.02,0.07-0.03c3.69-1.42,9.86-3.79,15.59-6.12c2.85-1.16,4.46-3.32,4.43-5.92C91,22.54,89.22,20.03,86.7,19.07z
			 M23.01,63.19c0,0.21-0.17,0.37-0.37,0.37h-2.28c-0.21,0-0.37-0.17-0.37-0.37v-9.07c0-0.21,0.17-0.37,0.37-0.37h2.28
			c0.21,0,0.37,0.17,0.37,0.37V63.19z M56.39,76.31c0-0.21,0.17-0.37,0.37-0.37h8.21c0.21,0,0.37,0.17,0.37,0.37v2.23
			c0,0.21-0.17,0.37-0.37,0.37h-2.38c-0.21,0-0.37,0.17-0.37,0.37v2.35c0,0.21-0.17,0.37-0.37,0.37h-2.39
			c-0.21,0-0.37-0.17-0.37-0.37v-2.35c0-0.21-0.17-0.37-0.37-0.37h-1.93c-0.21,0-0.37-0.17-0.37-0.37V76.31z"/>
	</g>
	<g>
		<path class="st0" d="M49.17,91.44c-20.97-0.16-38.09-17.28-38.25-38.25c-0.16-21.4,17.19-38.85,38.55-38.85
			c3.02,0,6.01,0.35,8.92,1.04c0.4,0.1,0.65,0.51,0.54,0.91l-0.43,1.66c-0.1,0.4-0.5,0.63-0.9,0.54c-2.65-0.62-5.39-0.94-8.14-0.94
			c-19.58,0-35.5,16.01-35.35,35.62c0.15,19.23,15.85,34.92,35.07,35.07c19.62,0.15,35.62-15.76,35.62-35.35
			c0-1.23-0.06-2.46-0.19-3.68c-0.04-0.4,0.24-0.77,0.64-0.82l1.7-0.21c0.41-0.05,0.79,0.24,0.83,0.66c0.14,1.34,0.21,2.7,0.21,4.06
			C88.03,74.24,70.57,91.6,49.17,91.44z"/>
	</g>
</g>
</svg>
